Coordinates
version=1
nRows=9
nColumns=63
inDegrees=yes

Units are S.I. units (second, meters, Newtons, ...)
If the header above contains a line with 'inDegrees', this indicates whether rotational values are in degrees (yes) or radians (no).

endheader
time	pelvis_tilt	pelvis_list	pelvis_rotation	pelvis_tx	pelvis_ty	pelvis_tz	hip_flexion_r	hip_adduction_r	hip_rotation_r	knee_angle_r	knee_angle_r_beta	ankle_angle_r	subtalar_angle_r	mtp_angle_r	hip_flexion_l	hip_adduction_l	hip_rotation_l	knee_angle_l	knee_angle_l_beta	ankle_angle_l	subtalar_angle_l	mtp_angle_l	L5_S1_Flex_Ext	L5_S1_Lat_Bending	L5_S1_axial_rotation	L4_L5_Flex_Ext	L4_L5_Lat_Bending	L4_L5_axial_rotation	L3_L4_Flex_Ext	L3_L4_Lat_Bending	L3_L4_axial_rotation	L2_L3_Flex_Ext	L2_L3_Lat_Bending	L2_L3_axial_rotation	L1_L2_Flex_Ext	L1_L2_Lat_Bending	L1_L2_axial_rotation	L1_T12_Flex_Ext	L1_T12_Lat_Bending	L1_T12_axial_rotation	Abs_r3	Abs_r2	Abs_r1	Abs_t1	Abs_t2	neck_flexion	neck_bending	neck_rotation	arm_flex_r	arm_add_r	arm_rot_r	elbow_flex_r	pro_sup_r	wrist_flex_r	wrist_dev_r	arm_flex_l	arm_add_l	arm_rot_l	elbow_flex_l	pro_sup_l	wrist_flex_l	wrist_dev_l
      1.20689655	      2.39941803	     -8.37886115	    101.68151433	      0.19259771	      0.97753571	      0.11853122	      6.79788450	      1.83005898	    -24.72933895	     11.69074960	      0.20404207	     32.72797548	     15.94016041	      0.00000000	      8.09544151	     -0.68667476	     -2.97033758	      9.83061148	      0.17157654	     30.69488899	     12.35923798	      0.00000000	      0.61129859	      0.30459160	     -0.73441035	      1.13524261	      0.40510682	     -0.78031100	      1.00430245	      0.74058401	     -0.78031100	      0.69865316	      0.74058401	     -0.64260906	      0.56765187	      0.62112319	     -0.59670841	      0.34929601	      0.47181238	     -0.55080776	      4.36644470	      3.44560107	     -4.08457005	      0.00000000	      0.00000000	     28.38672271	     -1.48534081	     -4.75977170	      5.20442284	    -22.58987186	     53.83269987	     32.07298244	     79.92227487	    -12.01344326	     -1.83831636	      5.88985101	    -19.06323059	     63.39266938	     25.29275071	     59.13242920	     -6.73530404	    -13.85761555
      1.22413793	      2.47485860	     -8.42409655	    101.81257004	      0.19318568	      0.97787797	      0.11937505	      6.93095318	      1.92271619	    -24.96002685	     11.71009918	      0.20437979	     32.33167713	     15.79997031	      0.00000000	      8.13579749	     -0.78364114	     -3.19085607	      9.78616635	      0.17080082	     30.11899705	     12.14384871	      0.00000000	      0.61203195	      0.30363619	     -0.69756039	      1.13660453	      0.40383613	     -0.74115791	      1.00550729	      0.73826103	     -0.74115791	      0.69949132	      0.73826103	     -0.61036534	      0.56833287	      0.61917492	     -0.56676781	      0.34971506	      0.47033246	     -0.52317029	      4.37168302	      3.43479330	     -3.87962160	      0.00000000	      0.00000000	     28.39250747	     -1.58083534	     -4.84049085	      5.47076241	    -22.61859361	     53.80348467	     32.35598898	     80.19404219	    -12.14184315	     -2.08283392	      6.38919388	    -19.18758500	     62.91769951	     25.67950146	     59.13610291	     -7.03066389	    -14.32768046
      1.24137931	      2.55052689	     -8.48428091	    102.01147734	      0.19388310	      0.97795004	      0.12012923	      7.05283442	      2.01476563	    -24.95743467	     11.69042756	      0.20403645	     32.29918860	     15.80769524	      0.00000000	      8.18063620	     -0.88404334	     -3.31247900	      9.69438393	      0.16919892	     30.06085994	     12.00703203	      0.00000000	      0.62166983	      0.29687650	     -0.68108772	      1.15450305	      0.39484574	     -0.72365570	      1.02134137	      0.72182551	     -0.72365570	      0.71050645	      0.72182551	     -0.59595175	      0.57728261	      0.60539055	     -0.55338377	      0.35522214	      0.45986169	     -0.51081579	      4.44052544	      3.35832629	     -3.78800557	      0.00000000	      0.00000000	     28.39498535	     -1.63361712	     -4.85176831	      5.78751581	    -22.55382295	     53.76105868	     32.52801840	     80.32217225	    -12.20607868	     -2.20730410	      6.93179635	    -19.25824861	     62.58038320	     25.83148305	     59.06150035	     -7.16145498	    -14.52751871
      1.25862069	      2.61980896	     -8.64740440	    101.62918641	      0.19475596	      0.97763333	      0.12006493	      7.36937616	      2.11597900	    -24.19796927	     11.80811447	      0.20609048	     32.24000417	     15.38846064	      0.00000000	      7.85473868	     -0.60980821	      0.15077701	      8.86322337	      0.15469243	     29.01158820	      6.44051508	      0.00000000	      0.64683560	      0.29245327	     -0.72453343	      1.20123840	      0.38896284	     -0.76981677	      1.06268621	      0.71107087	     -0.76981677	      0.73926841	      0.71107087	     -0.63396675	      0.60065154	      0.59637070	     -0.58868341	      0.36960186	      0.45301011	     -0.54340007	      4.62028202	      3.30828984	     -4.02963757	      0.00000000	      0.00000000	     28.39485337	     -1.48661299	     -4.90938994	      6.35792691	    -22.32037040	     53.60070007	     32.47599173	     84.83262086	    -13.78801597	     -3.01225018	      3.72244024	    -18.85739545	     47.55805206	     28.13725301	     70.43779614	     -7.43452123	    -12.66740973
      1.27586207	      2.69408093	     -8.66801089	    101.74448467	      0.19538310	      0.97765974	      0.12106749	      7.49578157	      2.20964761	    -24.12181115	     11.77330011	      0.20548285	     32.29722299	     15.43521468	      0.00000000	      7.90875067	     -0.69849500	      0.09492923	      8.77482440	      0.15314958	     29.10716497	      6.36560707	      0.00000000	      0.65196116	      0.28533452	     -0.72439336	      1.21075707	      0.37949492	     -0.76966795	      1.07110699	      0.69376236	     -0.76966795	      0.74512641	      0.69376236	     -0.63384419	      0.60541113	      0.58185416	     -0.58856961	      0.37253061	      0.44198318	     -0.54329502	      4.65689336	      3.22776119	     -4.02885858	      0.00000000	      0.00000000	     28.38355516	     -1.47852167	     -4.86215947	      6.76275194	    -22.31697051	     53.44601292	     32.55976478	     84.82671959	    -13.83513621	     -3.06195478	      4.23649450	    -18.94770814	     47.33076839	     28.23814004	     70.35577829	     -7.48980110	    -12.68452127
      1.29310345	      2.77802458	     -8.66738460	    101.77873139	      0.19612954	      0.97768333	      0.12227854	      7.63750216	      2.31939176	    -23.97620581	     11.75734600	      0.20520440	     32.38177419	     15.49886444	      0.00000000	      7.96748876	     -0.79793305	      0.09507254	      8.66816180	      0.15128796	     29.26945446	      6.29315302	      0.00000000	      0.64948631	      0.28039225	     -0.73538510	      1.20616103	      0.37292169	     -0.78134667	      1.06704106	      0.68174571	     -0.78134667	      0.74229791	      0.68174571	     -0.64346197	      0.60311299	      0.57177587	     -0.59750040	      0.37111648	      0.43432759	     -0.55153883	      4.63921579	      3.17185320	     -4.08999133	      0.00000000	      0.00000000	     28.36964568	     -1.40933460	     -4.76919199	      7.21388486	    -22.33184616	     53.12551231	     32.62366288	     84.73289243	    -13.89542103	     -3.11439455	      4.70964551	    -19.06777105	     47.05364982	     28.28554006	     70.24341589	     -7.58922379	    -12.62765653
      1.31034483	      2.87562188	     -8.63165368	    101.47292861	      0.19701390	      0.97757492	      0.12255416	      7.77426816	      2.59121883	    -22.22435928	     11.80226561	      0.20598839	     32.33218887	     13.91528780	      0.00000000	      7.63711582	     -0.71871824	      2.81608828	      8.06503784	      0.14076146	     28.73608695	      2.33544094	      0.00000000	      0.65201965	      0.29071776	     -0.68806253	      1.21086570	      0.38665462	     -0.73106643	      1.07120309	      0.70685116	     -0.73106643	      0.74519326	      0.70685116	     -0.60205471	      0.60546545	      0.59283166	     -0.55905080	      0.37256403	      0.45032181	     -0.51604689	      4.65731117	      3.28865746	     -3.82679735	      0.00000000	      0.00000000	     28.36811302	     -0.24509328	     -2.74173639	      5.98461873	    -21.93614910	     46.47085665	     33.25750164	     84.90333064	    -10.85590081	     -2.44082375	      4.29603455	    -18.79982157	     43.48397898	     29.00566426	     72.84750653	     -8.53966929	    -10.67985046
      1.32758621	      2.92011948	     -8.66053345	    101.42547152	      0.19776122	      0.97736300	      0.12371246	      7.92146582	      2.65392748	    -22.14515863	     11.78236885	      0.20564113	     32.41880131	     13.96282471	      0.00000000	      7.73407566	     -0.77614249	      2.86717463	      7.98399099	      0.13934693	     28.87325268	      2.30870997	      0.00000000	      0.65404742	      0.28292241	     -0.69760296	      1.21463147	      0.37628680	     -0.74120315	      1.07453451	      0.68789754	     -0.74120315	      0.74751080	      0.68789754	     -0.61040259	      0.60734844	      0.57693538	     -0.56680241	      0.37372270	      0.43824681	     -0.52320222	      4.67179535	      3.20047487	     -3.87985838	      0.00000000	      0.00000000	     28.35972296	     -0.15389207	     -2.63646052	      6.39727581	    -22.02792908	     46.19697958	     33.30437686	     84.75326594	    -10.87408362	     -2.42407118	      4.69259380	    -18.96236507	     43.39810179	     28.93513605	     72.89907393	     -8.64359545	    -10.64063452
      1.34482759	      2.91843068	     -8.75156601	    101.14232564	      0.19854820	      0.97699825	      0.12478388	      8.35737349	      2.59643105	    -21.58391236	     12.22895661	      0.21343556	     32.61086986	     13.63427336	      0.00000000	      7.95259387	     -0.74841926	      3.30964701	      8.11738590	      0.14167511	     28.82515794	      1.43644273	      0.00000000	      0.66560512	      0.28803194	     -0.64041387	      1.23609527	      0.38308248	     -0.68043974	      1.09352266	      0.70032087	     -0.68043974	      0.76072009	      0.70032087	     -0.56036214	      0.61808092	      0.58735474	     -0.52033627	      0.38032677	      0.44616148	     -0.48031040	      4.75435083	      3.25827495	     -3.56178984	      0.00000000	      0.00000000	     28.35594287	      1.63409343	      0.45697691	      6.22683459	    -22.08695403	     44.00175270	     33.64969200	     82.95667439	     -9.15889384	     -1.41325341	      5.31269035	    -18.91834464	     44.25773225	     28.58080390	     75.32971514	    -10.90634957	    -10.41241636
